<svg width="348" height="102" viewBox="0 0 348 102" fill="none" xmlns="http://www.w3.org/2000/svg">
<path d="M0.0986328 10.9241C0.0986328 5.40123 4.57579 0.924072 10.0986 0.924072H170.089C175.612 0.924072 180.089 5.40122 180.089 10.9241V31.4631C180.089 36.986 175.612 41.4631 170.089 41.4631H0.0986328V10.9241Z" fill="#EB6F00"/>
<path d="M0.0986328 28.2073H312.43C317.953 28.2073 322.43 32.6844 322.43 38.2073V58.7463C322.43 64.2692 317.953 68.7463 312.43 68.7463H0.0986328V28.2073Z" fill="#EB6F00"/>
<path d="M0.0986328 60.6213H337.447C342.97 60.6213 347.447 65.0985 347.447 70.6213V91.1604C347.447 96.6832 342.97 101.16 337.447 101.16H10.0986C4.57579 101.16 0.0986328 96.6832 0.0986328 91.1604V60.6213Z" fill="#EB6F00"/>
</svg>
