<svg width="159" height="57" viewBox="0 0 159 57" fill="none" xmlns="http://www.w3.org/2000/svg">
<path d="M0.14209 5.70227C0.14209 2.94085 2.38067 0.702271 5.14209 0.702271H119.008C121.769 0.702271 124.008 2.94085 124.008 5.70227V15.7023C124.008 18.4637 121.769 20.7023 119.008 20.7023H0.14209V5.70227Z" fill="#EB6F00"/>
<path d="M0.14209 19.3693H153.173C155.934 19.3693 158.173 21.6078 158.173 24.3693V34.3693C158.173 37.1307 155.934 39.3693 153.173 39.3693H0.14209V19.3693Z" fill="#EB6F00"/>
<path d="M0.14209 36.6409H112.347C115.109 36.6409 117.347 38.8794 117.347 41.6409V51.6409C117.347 54.4023 115.109 56.6409 112.347 56.6409H5.14209C2.38067 56.6409 0.14209 54.4023 0.14209 51.6409V36.6409Z" fill="#EB6F00"/>
</svg>
