<svg width="38" height="25" viewBox="0 0 38 25" fill="none" xmlns="http://www.w3.org/2000/svg">
<path d="M36.803 12.9154L31.3221 2.1084L25.8413 12.9154L24.6443 15.2631H24.6502L22.3311 19.8319L17.0372 8.85286L11.5937 19.8319L9.27458 15.2631H9.30608L4.53393 5.86235H1.90768L4.94933 11.8453H4.91586L6.11284 14.195L11.5937 25L16.9624 14.4165L22.3311 25L27.8119 14.195L29.0089 11.8453H29.003L31.3221 7.27652L34.1846 12.9154L35.3816 15.2631H38L36.803 12.9154ZM3.46099 3.74803L2.62823 2.1084L0 2.11235L0.832763 3.74803H3.46099Z" fill="white"/>
<path d="M11.594 15.2294L16.9627 4.64399L22.3314 15.2294L27.6666 4.70926L28.9069 2.10839H26.6487L25.3376 4.85759L22.3314 10.7793L17.2718 0.443038H16.8308C15.372 3.33663 13.0607 7.89161 11.594 10.7793L8.58782 4.85759L7.21563 2.10839H4.96146L6.25687 4.70926H6.25883L11.594 15.2294ZM17.2718 0.443038L17.0533 0C16.9804 0.148339 16.9056 0.296677 16.8308 0.443038H17.2718Z" fill="white"/>
<path d="M30.1115 15.2629L29.2413 17.0786H31.8636L32.7358 15.2629H30.1115Z" fill="white"/>
</svg>
