<svg width="50" height="50" viewBox="0 0 50 50" fill="none" xmlns="http://www.w3.org/2000/svg">
<path fill-rule="evenodd" clip-rule="evenodd" d="M24.6396 49.3303C38.1118 49.3303 49.0332 38.409 49.0332 24.9368C49.0332 11.4646 38.1118 0.543213 24.6396 0.543213C11.1675 0.543213 0.246094 11.4646 0.246094 24.9368C0.246094 38.409 11.1675 49.3303 24.6396 49.3303ZM13.876 13.9405H35.4026C36.8825 13.9405 38.0934 15.1777 38.0934 16.6898V33.1857C38.0934 34.6978 36.8825 35.935 35.4026 35.935H13.876C12.3961 35.935 11.1852 34.6978 11.1852 33.1857L11.1986 16.6898C11.1986 15.1777 12.3961 13.9405 13.876 13.9405ZM24.6393 26.3124L35.4026 19.4391V16.6898L24.6393 23.5631L13.876 16.6898V19.4391L24.6393 26.3124Z" fill="#EB6F00"/>
</svg>
