<svg width="50" height="50" viewBox="0 0 50 50" fill="none" xmlns="http://www.w3.org/2000/svg">
<path fill-rule="evenodd" clip-rule="evenodd" d="M24.6396 49.7561C38.1118 49.7561 49.0332 38.8347 49.0332 25.3625C49.0332 11.8904 38.1118 0.968994 24.6396 0.968994C11.1675 0.968994 0.246094 11.8904 0.246094 25.3625C0.246094 38.8347 11.1675 49.7561 24.6396 49.7561ZM12.1107 22.5662C10.8859 19.4424 11.4786 13.9408 15.2967 13.186C18.9143 12.4707 20.8894 19.7878 19.5341 21.2995C17.7652 23.2726 17.8799 23.4204 19.4854 25.489C19.5065 25.5162 19.5279 25.5437 19.5495 25.5716C20.6478 26.9873 21.5846 28.0362 23.0334 29.1177C27.9061 32.7548 28.7462 31.2913 29.5827 29.8341C30.0036 29.1009 30.4236 28.3692 31.3561 28.2898C31.9266 28.2412 33.8318 29.1711 35.1646 29.8217C35.6202 30.0441 36.009 30.2338 36.2547 30.3407C38.3096 31.2342 37.943 33.3368 36.9116 34.9253C31.844 42.7306 15.7303 31.7977 12.1107 22.5662Z" fill="#EB6F00"/>
</svg>
