<svg width="49" height="49" viewBox="0 0 49 49" fill="none" xmlns="http://www.w3.org/2000/svg">
<path fill-rule="evenodd" clip-rule="evenodd" d="M24.8428 48.385C38.11 48.385 48.8652 37.6298 48.8652 24.3625C48.8652 11.0953 38.11 0.340088 24.8428 0.340088C11.5755 0.340088 0.820312 11.0953 0.820312 24.3625C0.820312 37.6298 11.5755 48.385 24.8428 48.385ZM25.5392 16.6974C22.9722 17.7826 17.8414 20.028 10.1474 23.4347C8.89791 23.9395 8.24337 24.434 8.18372 24.9168C8.08289 25.7327 9.08885 26.054 10.4592 26.4917C10.6456 26.5513 10.8388 26.613 11.0368 26.6784C12.3844 27.1236 14.1971 27.6439 15.1393 27.6648C15.9939 27.6836 16.9483 27.3253 18.0014 26.5904C25.1903 21.6592 28.9011 19.1665 29.1339 19.1129C29.2981 19.0748 29.5256 19.027 29.6802 19.1665C29.8349 19.306 29.8196 19.5699 29.8032 19.6407C29.7039 20.0722 25.7606 23.7976 23.7161 25.7291C23.077 26.3329 22.6234 26.7614 22.5309 26.8591C22.3239 27.0776 22.113 27.2843 21.9102 27.4829C20.6585 28.7092 19.7197 29.6289 21.9624 31.1306C23.0387 31.8514 23.9002 32.4476 24.7595 33.0422C25.7002 33.6931 26.6382 34.3422 27.8523 35.1509C28.1617 35.357 28.4571 35.5709 28.7449 35.7794C29.838 36.5711 30.82 37.2823 32.0334 37.1689C32.7387 37.1029 33.4671 36.4292 33.8371 34.4193C34.7118 29.6694 36.4305 19.3778 36.8275 15.137C36.8623 14.7658 36.8185 14.29 36.7831 14.0813C36.7477 13.8727 36.6744 13.575 36.4073 13.355C36.0906 13.0943 35.6028 13.0396 35.3843 13.0434C34.3919 13.0611 32.8685 13.5996 25.5392 16.6974Z" fill="#EB6F00"/>
</svg>
