<svg width="48" height="49" viewBox="0 0 48 49" fill="none" xmlns="http://www.w3.org/2000/svg">
<circle cx="24.0012" cy="24.5" r="24" fill="#EB6F00"/>
<path fill-rule="evenodd" clip-rule="evenodd" d="M11.7824 23.1312C18.1561 20.3091 22.4064 18.449 24.5329 17.5501C30.6044 14.984 31.8664 14.5378 32.6885 14.5232C32.8695 14.52 33.2735 14.5654 33.5359 14.7813C33.7572 14.9635 33.8179 15.2101 33.8472 15.383C33.8765 15.5558 33.9128 15.95 33.884 16.2575C33.5551 19.7705 32.1314 28.296 31.4068 32.2307C31.1003 33.8957 30.4968 34.4538 29.9126 34.5085C28.6428 34.6271 27.6791 33.6558 26.449 32.8368C24.5246 31.5549 23.4375 30.7572 21.5699 29.5064C19.4111 28.0609 20.8108 27.2664 22.0409 25.968C22.3627 25.628 27.9572 20.4575 28.0652 19.9883C28.0787 19.9296 28.0914 19.711 27.9633 19.5955C27.8352 19.4799 27.6467 19.5195 27.5107 19.551C27.3179 19.5955 24.2438 21.6604 18.2886 25.7454C17.4163 26.3541 16.6257 26.6509 15.9177 26.6354C15.1372 26.6181 13.6356 26.187 12.5192 25.8182C11.1493 25.3659 10.0609 25.1268 10.1558 24.359C10.2052 23.959 10.7474 23.5493 11.7824 23.1312Z" fill="white"/>
</svg>
