<svg width="32" height="30" viewBox="0 0 32 30" fill="none" xmlns="http://www.w3.org/2000/svg">
<path fill-rule="evenodd" clip-rule="evenodd" d="M3.0883 13.3811C3.0883 13.3809 3.08841 13.3807 3.08858 13.3806C11.2878 9.29962 16.7555 6.60978 19.491 5.30983C27.3017 1.59886 28.9251 0.953698 29.9827 0.932493C30.2155 0.927994 30.7353 0.993539 31.0728 1.30584C31.3575 1.5693 31.4357 1.92594 31.4733 2.17591C31.511 2.42588 31.5577 2.99585 31.5206 3.44053C31.0976 8.52086 29.266 20.8496 28.3339 26.5398C27.9396 28.9476 27.1633 29.7547 26.4117 29.8337C24.7782 30.0053 23.5384 28.6006 21.956 27.4163C19.4803 25.5624 18.0819 24.4089 15.6793 22.6C12.9021 20.5097 14.7028 19.3607 16.2851 17.4831C16.6992 16.9915 23.8961 9.51431 24.0351 8.83573C24.0525 8.75091 24.0688 8.43475 23.904 8.26768C23.7392 8.1006 23.4967 8.15779 23.3218 8.20342C23.0737 8.26768 19.1192 11.2538 11.4581 17.1611C10.3359 18.0415 9.31883 18.4708 8.4081 18.4483C7.40399 18.4232 5.47228 17.7999 4.03615 17.2665C2.27376 16.6124 0.873631 16.2667 0.995699 15.1563C1.05926 14.578 1.75669 13.9862 3.08799 13.3816C3.08818 13.3815 3.0883 13.3813 3.0883 13.3811Z" fill="white"/>
</svg>
