<svg width="38" height="37" viewBox="0 0 38 37" fill="none" xmlns="http://www.w3.org/2000/svg">
<path fill-rule="evenodd" clip-rule="evenodd" d="M2.74913 15.8035C2.74913 15.8033 2.74927 15.8031 2.74948 15.803C12.9073 10.7471 19.6811 7.41466 23.0701 5.80418C32.7466 1.20673 34.7579 0.407453 36.0681 0.381182C36.3566 0.375609 37.0005 0.456811 37.4187 0.843713C37.7713 1.17011 37.8682 1.61195 37.9149 1.92163C37.9615 2.23131 38.0194 2.93744 37.9734 3.48834C37.4493 9.78227 35.1802 25.0562 34.0254 32.1056C33.5369 35.0885 32.5752 36.0884 31.6441 36.1864C29.6203 36.3989 28.0843 34.6587 26.1239 33.1915C23.0569 30.8947 21.3244 29.4657 18.3479 27.2247C14.9073 24.635 17.1381 23.2116 19.0985 20.8854C19.6114 20.2764 28.5276 11.013 28.6997 10.1724C28.7213 10.0673 28.7415 9.67559 28.5373 9.46861C28.3331 9.26162 28.0328 9.33248 27.816 9.389C27.5087 9.46861 22.6095 13.1681 13.1184 20.4866C11.728 21.5772 10.468 22.109 9.33974 22.0811C8.09577 22.0501 5.7026 21.2779 3.92341 20.6171C1.74001 19.8067 0.00542329 19.3784 0.156651 18.0028C0.235395 17.2863 1.09943 16.5532 2.74876 15.8041C2.74898 15.804 2.74913 15.8038 2.74913 15.8035Z" fill="white"/>
</svg>
