<svg width="49" height="50" viewBox="0 0 49 50" fill="none" xmlns="http://www.w3.org/2000/svg">
<path fill-rule="evenodd" clip-rule="evenodd" d="M24.4268 49.7561C37.8989 49.7561 48.8203 38.8347 48.8203 25.3625C48.8203 11.8904 37.8989 0.968994 24.4268 0.968994C10.9546 0.968994 0.0332031 11.8904 0.0332031 25.3625C0.0332031 38.8347 10.9546 49.7561 24.4268 49.7561ZM12.0504 32.5908L10.0401 39.9775L17.4238 37.9628C19.6937 39.2863 22.2751 39.9817 24.9027 39.9775C33.1146 39.9775 39.7712 33.3208 39.7712 25.109C39.7712 16.8971 33.1146 10.2405 24.9027 10.2405C16.6908 10.2405 10.0342 16.8971 10.0342 25.109C10.0299 27.7377 10.7258 30.3202 12.0504 32.5908ZM18.985 18.2814C19.157 18.1952 19.3446 18.1446 19.5366 18.1327V18.1312C19.7361 18.1173 19.9362 18.1153 20.1358 18.1252C20.2161 18.1312 20.2964 18.1401 20.3767 18.149C20.6131 18.1773 20.8733 18.32 20.9611 18.5193C21.4041 19.5244 21.8353 20.5369 22.2516 21.5539C22.3438 21.7784 22.2888 22.0684 22.1134 22.3509C21.9927 22.5424 21.8622 22.7275 21.7223 22.9055C21.5543 23.1196 21.193 23.5151 21.193 23.5151C21.193 23.5151 21.0458 23.6905 21.1023 23.9091C21.14 24.0166 21.191 24.119 21.254 24.2139L21.3417 24.3551C21.7635 25.0465 22.2733 25.6803 22.8583 26.2405C22.9063 26.2869 22.9541 26.3338 23.0018 26.3807C23.1314 26.508 23.2611 26.6354 23.398 26.7549C24.0942 27.3687 24.8817 27.8704 25.7323 28.2418L25.7398 28.2447C25.7764 28.2607 25.8077 28.2745 25.8383 28.2879C25.9133 28.321 25.9835 28.3519 26.1145 28.4068C26.2067 28.4462 26.3016 28.479 26.3985 28.5049C26.4985 28.5307 26.604 28.5261 26.7015 28.4916C26.7989 28.4572 26.8839 28.3945 26.9456 28.3116C28.0206 27.0092 28.1202 26.9244 28.1277 26.9244V26.9274C28.2024 26.8576 28.2913 26.8047 28.3882 26.7721C28.4852 26.7395 28.588 26.7281 28.6897 26.7386C28.7804 26.7426 28.8696 26.7632 28.9529 26.7995C29.7424 27.1593 31.0359 27.7228 31.0359 27.7228L31.9013 28.1109C32.0455 28.1808 32.1778 28.3458 32.1838 28.5049C32.184 28.5105 32.1843 28.5163 32.1846 28.5223C32.1893 28.623 32.1967 28.7816 32.163 29.0595C32.1154 29.4446 31.9994 29.907 31.8834 30.1494C31.8017 30.3204 31.6946 30.4705 31.5712 30.5984C31.4047 30.7724 31.2813 30.8779 31.0805 31.0266C30.9586 31.1188 30.8947 31.1604 30.8947 31.1604C30.688 31.2913 30.572 31.3567 30.3252 31.4875C29.9425 31.6914 29.5197 31.8087 29.0867 31.831C29.0386 31.8333 28.9905 31.8359 28.9425 31.8384C28.7144 31.8505 28.4872 31.8626 28.26 31.8503L27.414 31.721C25.3001 31.165 23.345 30.1233 21.7045 28.6789C21.4242 28.431 21.1606 28.1674 20.8953 27.9022C20.844 27.8509 20.7926 27.7995 20.741 27.7481C19.4192 26.4323 18.4185 25.0123 17.8104 23.6712C17.513 23.008 17.3227 22.2988 17.3198 21.5703C17.3147 20.6684 17.6103 19.7905 18.1598 19.0753C18.1763 19.0539 18.1926 19.0324 18.209 19.0107C18.3008 18.8894 18.3965 18.7629 18.5479 18.6204C18.6765 18.4869 18.8237 18.3727 18.985 18.2814Z" fill="#EB6F00"/>
</svg>
