<svg width="48" height="49" viewBox="0 0 48 49" fill="none" xmlns="http://www.w3.org/2000/svg">
<circle cx="24.0012" cy="24.5" r="24" fill="#EB6F00"/>
<path fill-rule="evenodd" clip-rule="evenodd" d="M13.8492 34.7261C13.9372 33.5647 15.2559 31.1972 14.6564 30.2739C12.0645 26.2808 12.4801 20.9557 15.6185 17.1891C19.8314 12.1328 26.8709 12.1307 31.7837 16.4548C36.4394 20.5526 36.068 28.611 31.413 32.6469C28.972 34.7633 25.9137 35.7852 22.6798 35.3805C21.2121 35.1968 19.6288 34.6829 18.3731 33.8956C17.6209 33.4241 14.8364 34.556 13.8492 34.7261ZM10.5941 37.9812C12.4775 37.4934 14.3579 36.9899 16.2412 36.5007C18.0561 36.0292 17.2512 36.045 18.8752 36.7154C19.7564 37.0792 20.7071 37.3651 21.6449 37.5376C25.5091 38.2484 29.5888 37.1855 32.6084 34.6281C38.7275 29.4457 39.0035 20.5164 33.3941 14.8445C27.8362 9.22467 18.5613 9.94825 13.6425 15.9989C10.4668 19.9054 9.82764 25.1591 11.7856 29.7182C12.4571 31.2818 12.5818 30.569 12.1076 32.311C11.7252 33.7159 10.7223 36.7128 10.5941 37.9812Z" fill="white"/>
<path fill-rule="evenodd" clip-rule="evenodd" d="M19.2343 18.2254C17.2607 18.6155 16.9543 21.4594 17.5874 23.0741C19.4584 27.846 27.7879 33.4974 30.4074 29.4628C30.9406 28.6416 31.1301 27.5548 30.0678 27.0929C29.5694 26.8761 27.9314 25.999 27.5357 26.0328C26.0958 26.1553 27.0197 29.2868 23.2335 26.4607C22.4846 25.9016 22.0004 25.3595 21.4326 24.6277C20.5713 23.5175 20.4982 23.4527 21.4247 22.4193C22.1253 21.6379 21.1043 17.8556 19.2343 18.2254Z" fill="white"/>
</svg>
