<svg width="34" height="35" viewBox="0 0 34 35" fill="none" xmlns="http://www.w3.org/2000/svg">
<path fill-rule="evenodd" clip-rule="evenodd" d="M4.699 30.0161C4.80717 28.588 6.42876 25.6768 5.69165 24.5413C2.50438 19.6311 3.01546 13.083 6.87463 8.45124C12.0552 2.2336 20.7115 2.23099 26.7527 7.54833C32.4777 12.5872 32.021 22.4965 26.2969 27.4594C23.2953 30.062 19.5345 31.3185 15.5578 30.8208C13.7531 30.595 11.8061 29.963 10.2619 28.995C9.33702 28.4152 5.91296 29.807 4.699 30.0161ZM0.696289 34.0189C3.0122 33.4191 5.32452 32.7999 7.64035 32.1983C9.87214 31.6185 8.88235 31.638 10.8794 32.4624C11.963 32.9097 13.132 33.2613 14.2852 33.4734C19.0369 34.3474 24.0537 33.0404 27.7669 29.8956C35.2913 23.523 35.6307 12.5427 28.733 5.56808C21.8985 -1.34248 10.4933 -0.452699 4.44485 6.98761C0.539704 11.7914 -0.246231 18.2518 2.16146 23.8581C2.98718 25.7807 3.1405 24.9043 2.55736 27.0463C2.08712 28.774 0.853933 32.4591 0.696289 34.0189Z" fill="white"/>
<path fill-rule="evenodd" clip-rule="evenodd" d="M11.3219 9.72605C8.89495 10.2058 8.5182 13.7028 9.29672 15.6885C11.5975 21.5564 21.8401 28.5059 25.0613 23.5445C25.7169 22.5347 25.9499 21.1983 24.6437 20.6303C24.0308 20.3637 22.0166 19.2852 21.5299 19.3267C19.7593 19.4774 20.8955 23.3282 16.2397 19.8529C15.3187 19.1654 14.7233 18.4987 14.0251 17.5989C12.966 16.2337 12.8761 16.154 14.0154 14.8833C14.8769 13.9224 13.6214 9.27137 11.3219 9.72605Z" fill="white"/>
</svg>
