<svg width="42" height="42" viewBox="0 0 42 42" fill="none" xmlns="http://www.w3.org/2000/svg">
<path fill-rule="evenodd" clip-rule="evenodd" d="M5.20156 36.8726C5.33557 35.1032 7.34453 31.4966 6.43134 30.0899C2.48269 24.0068 3.11585 15.8944 7.89691 10.1562C14.315 2.45328 25.0391 2.45004 32.5235 9.0376C39.6161 15.2802 39.0503 27.5566 31.9588 33.7051C28.2401 36.9293 23.5809 38.4861 18.6544 37.8695C16.4185 37.5896 14.0064 36.8067 12.0934 35.6074C10.9475 34.8891 6.70551 36.6134 5.20156 36.8726ZM0.242676 41.8314C3.11182 41.0884 5.97651 40.3213 8.84555 39.576C11.6105 38.8577 10.3842 38.8818 12.8583 39.9032C14.2008 40.4574 15.6491 40.8929 17.0777 41.1557C22.9645 42.2385 29.1798 40.6192 33.78 36.7232C43.1018 28.8283 43.5223 15.225 34.9768 6.5843C26.5098 -1.97707 12.3801 -0.874733 4.8867 8.34293C0.0486855 14.2943 -0.924995 22.2979 2.05785 29.2435C3.08081 31.6254 3.27076 30.5396 2.54833 33.1933C1.96575 35.3337 0.437978 39.8991 0.242676 41.8314Z" fill="white"/>
<path fill-rule="evenodd" clip-rule="evenodd" d="M13.4072 11.7355C10.4005 12.3299 9.93373 16.6623 10.8982 19.1223C13.7486 26.392 26.438 35.0015 30.4286 28.855C31.2408 27.604 31.5295 25.9482 29.9113 25.2446C29.152 24.9144 26.6566 23.5782 26.0537 23.6296C23.8601 23.8163 25.2678 28.5869 19.4997 24.2815C18.3588 23.4298 17.6211 22.6039 16.7562 21.489C15.444 19.7978 15.3327 19.699 16.7441 18.1248C17.8113 16.9344 16.256 11.1723 13.4072 11.7355Z" fill="white"/>
</svg>
